<svg width="16" height="16" viewBox="0 0 16 16" xmlns="http://www.w3.org/2000/svg" fill="currentColor">
  <path fill-rule="evenodd" clip-rule="evenodd" d="M1.5 3C0.671573 3 0 3.67157 0 4.5V12.5C0 13.3284 0.671573 14 1.5 14H13.5C14.3284 14 15 13.3284 15 12.5V5.5C15 4.67157 14.3284 4 13.5 4H8.5L7 3H1.5ZM1.5 4C1.22386 4 1 4.22386 1 4.5V12.5C1 12.7761 1.22386 13 1.5 13H13.5C13.7761 13 14 12.7761 14 12.5V5C14 4.72386 13.7761 4.5 13.5 4.5H7.5L6.5 3.5L6 3H1.5V4ZM4 6.5H11V7.5H4V6.5ZM4 8.5H9V9.5H4V8.5ZM4 10.5H7V11.5H4V10.5Z"/>
</svg>
